<?xml version="1.0" encoding="utf-8"?>
<!-- Generator: Adobe Illustrator 23.1.1, SVG Export Plug-In . SVG Version: 6.00 Build 0)  -->
<svg version="1.1" id="Layer_1" xmlns="http://www.w3.org/2000/svg" xmlns:xlink="http://www.w3.org/1999/xlink" x="0px" y="0px"
	 viewBox="0 0 210 200.8" style="enable-background:new 0 0 210 200.8;" xml:space="preserve">
<style type="text/css">
	.st0{fill:#FFFFFF;}
	.st1{fill:#4267B2;}
	.st2{fill:#32363B;}
</style>
<title>Thumb-Icon-RGB-BRC-Site-300</title>
<g>
	<path class="st0" d="M163.4,85.5l-3.7-1.1l2.3-3.1c2.7-3.6,2-8.6-1.6-11.3c-1-0.8-2.2-1.3-3.5-1.5l-3.7-0.6l1.8-3.4
		c2.1-4,0.5-8.8-3.4-10.9c-1-0.5-2.1-0.8-3.2-0.9h-46.7c-3.6,0.1-7.1,1.4-9.9,3.6c-0.8,0.7-1.6,1.3-2.6,1.7l-1,0.5v43.2l4.9,4.2
		l16.4,30.5c1.5,2.4,2.1,5.2,1.9,8.1l-1.3,17.1c1.1,0.7,2.4,1,3.7,1c7.1,0,13.2-11.3,13.2-20.6c0-1.3-0.1-2.6-0.3-3.8l-2.9-18.5
		h35.6c2.3,0,4.5-1,6.2-2.6c1.5-1.5,2.3-3.5,2.4-5.6c0-2.5-1.2-4.9-3.2-6.4l-3.3-2.5l3.6-2c3.9-2.2,5.3-7.2,3.1-11.1
		C167.1,87.4,165.4,86.1,163.4,85.5L163.4,85.5z"/>
	<path class="st1" d="M48.5,110.1c-0.1,0-0.2-0.1-0.2-0.2V46.4c0-0.1,0.1-0.2,0.2-0.2h36.6c0.1,0,0.2,0.1,0.2,0.2v63.5
		c0,0.1-0.1,0.2-0.2,0.2H48.5z"/>
	<path class="st2" d="M174.6,93.2c0,3.7-1.5,7.2-4.1,9.7c1.9,2.4,2.9,5.3,2.9,8.3c0,3.6-1.4,7-3.9,9.4c-2.7,2.7-6.3,4.2-10.1,4.2
		h-29.3l1.9,12.2c0.2,1.5,0.3,3.1,0.4,4.7c0,12.1-8.1,26.1-18.7,26.1c-3,0-6-1.1-8.3-3l-1.1-0.9l1.5-20.1c0.1-0.8,0-1.7-0.2-2.5
		c-0.2-0.8-0.5-1.6-1-2.3l-16.1-29.8l-0.6-0.5c-0.4,2.8-2.8,4.8-5.6,4.8H51.2c-3.1,0-5.6-2.5-5.6-5.6V49.1c0-3.1,2.5-5.6,5.6-5.6
		h31.2c3.1,0,5.6,2.5,5.6,5.6v3l0,0c3.8-3.1,8.6-4.8,13.5-4.9l0,0h46.8h0.1c7.5,0.4,13.3,6.8,12.9,14.3c0,0.8-0.2,1.6-0.3,2.4
		c6.9,2.9,10,10.9,7.1,17.7C172.2,84.1,174.6,88.5,174.6,93.2z M82.6,49.1c0-0.1-0.1-0.1-0.2-0.1H51.2c-0.1,0-0.2,0.1-0.2,0.1v58.8
		c0,0.1,0.1,0.2,0.2,0.2h31.2c0.1,0,0.1-0.1,0.2-0.2L82.6,49.1L82.6,49.1z M163.5,85.5l-3.7-1.1l2.3-3.1c2.7-3.6,2-8.6-1.6-11.3
		c-1-0.8-2.3-1.3-3.5-1.5l-3.7-0.6l1.8-3.4c2.1-4,0.5-8.8-3.4-10.9c-1-0.5-2.1-0.8-3.2-0.9h-46.7c-3.6,0.1-7.1,1.4-9.9,3.6
		c-0.8,0.7-1.6,1.3-2.6,1.7l-1,0.5v43.2l4.9,4.2l16.4,30.5c1.5,2.4,2.1,5.2,1.9,8.1l-1.3,17.1c1.1,0.7,2.4,1,3.7,1
		c7.1,0,13.2-11.3,13.2-20.6c0-1.3-0.1-2.6-0.3-3.8l-2.9-18.5h35.6c2.3,0,4.5-1,6.2-2.6c1.5-1.5,2.3-3.5,2.4-5.6
		c0-2.5-1.2-4.9-3.2-6.4l-3.3-2.5l3.6-2c3.9-2.2,5.3-7.2,3.1-11.1C167.1,87.4,165.4,86.1,163.5,85.5L163.5,85.5z"/>
</g>
</svg>
