<?xml version="1.0" encoding="utf-8"?>
<!-- Generator: Adobe Illustrator 23.1.1, SVG Export Plug-In . SVG Version: 6.00 Build 0)  -->
<svg version="1.1" xmlns="http://www.w3.org/2000/svg" xmlns:xlink="http://www.w3.org/1999/xlink" x="0px" y="0px"
	 viewBox="19 19 170 160.8" style="enable-background:new 0 0 210 200.8;" xml:space="preserve">
<style type="text/css">
	.st0{fill:#FFFFFF;}
	.st1{fill:url(#SVGID_1_);}
	.st2{fill:url(#SVGID_2_);}
	.st3{opacity:0.27;fill:url(#SVGID_3_);}
	.st4{fill:#333B61;}
	.st5{fill:#3E080F;}
</style>
<g id="Layer_1">
	<title>Thumb-Icon-RGB-BRC-Site-300</title>
	<path class="st0" d="M163.4,115.9l-3.7,1.1l2.3,3.1c2.7,3.6,2,8.6-1.6,11.3c-1,0.8-2.2,1.3-3.5,1.5l-3.7,0.6l1.8,3.4
		c2.1,4,0.5,8.8-3.4,10.9c-1,0.5-2.1,0.8-3.2,0.9h-46.7c-3.6-0.1-7.1-1.4-9.9-3.6c-0.8-0.7-1.6-1.3-2.6-1.7l-1-0.5V99.8l4.9-4.2
		l16.4-30.5c1.5-2.4,2.1-5.2,1.9-8.1L110,40c1.1-0.7,2.4-1,3.7-1c7.1,0,13.2,11.3,13.2,20.6c0,1.3-0.1,2.6-0.3,3.8L123.8,82h35.6
		c2.3,0,4.5,1,6.2,2.6c1.5,1.5,2.3,3.5,2.4,5.6c0,2.5-1.2,4.9-3.2,6.4l-3.3,2.5l3.6,2.1c3.9,2.2,5.3,7.2,3.1,11.1
		C167.1,114,165.4,115.3,163.4,115.9L163.4,115.9z"/>
</g>
<g id="Warstwa_2">
	<linearGradient id="SVGID_1_" gradientUnits="userSpaceOnUse" x1="104.8159" y1="35.897" x2="104.8159" y2="164.923">
		<stop  offset="0" style="stop-color:#FFE564"/>
		<stop  offset="0.2522" style="stop-color:#FFE261"/>
		<stop  offset="0.4614" style="stop-color:#FFD956"/>
		<stop  offset="0.6552" style="stop-color:#FFCB45"/>
		<stop  offset="0.8387" style="stop-color:#FFB62D"/>
		<stop  offset="1" style="stop-color:#FF9E11"/>
	</linearGradient>
	<circle class="st1" cx="104.8" cy="100.4" r="64.5"/>
	
		<radialGradient id="SVGID_2_" cx="102.751" cy="99.3992" r="56.8777" gradientTransform="matrix(1.1324 0 0 1.1324 -11.6441 -12.2544)" gradientUnits="userSpaceOnUse">
		<stop  offset="0" style="stop-color:#FFE564"/>
		<stop  offset="0.9198" style="stop-color:#FFE564;stop-opacity:8.018488e-02"/>
		<stop  offset="1" style="stop-color:#FFE564;stop-opacity:0"/>
	</radialGradient>
	<circle class="st2" cx="104.7" cy="100.3" r="64.4"/>
	
		<radialGradient id="SVGID_3_" cx="102.751" cy="99.4913" r="56.8777" gradientTransform="matrix(1.1324 0 0 1.1324 -11.6441 -12.2544)" gradientUnits="userSpaceOnUse">
		<stop  offset="0" style="stop-color:#FFE564;stop-opacity:0"/>
		<stop  offset="0.3015" style="stop-color:#FFE261;stop-opacity:0.3015"/>
		<stop  offset="0.4861" style="stop-color:#FFDA59;stop-opacity:0.4861"/>
		<stop  offset="0.6392" style="stop-color:#FFCC4B;stop-opacity:0.6392"/>
		<stop  offset="0.7751" style="stop-color:#FFB736;stop-opacity:0.7751"/>
		<stop  offset="0.8984" style="stop-color:#FF9D1C;stop-opacity:0.8984"/>
		<stop  offset="1" style="stop-color:#FF8100"/>
	</radialGradient>
	<circle class="st3" cx="104.7" cy="100.4" r="64.4"/>
	<ellipse class="st4" cx="79.7" cy="118.4" rx="10" ry="11.7"/>
	<ellipse class="st4" cx="130.6" cy="118.4" rx="10" ry="11.7"/>
	<path class="st5" d="M71.1,86.5c0,0,33.6-45.4,67.8,0c0,0-3.5,0-3.5,0s-26.1-24.2-61.2,0H71.1z"/>
</g>
</svg>
